<svg width="32" height="32" viewBox="0 0 32 32" fill="none" xmlns="http://www.w3.org/2000/svg">
<path d="M9.13812 14.616C9.78312 11.417 12.6141 9 16.0001 9H28.1061C25.6811 4.823 21.1691 2 16.0001 2C11.5221 2 7.53912 4.121 4.97412 7.403L9.13812 14.616Z" fill="#429B9C"/>
<path d="M16 21.25C18.8995 21.25 21.25 18.8995 21.25 16C21.25 13.1005 18.8995 10.75 16 10.75C13.1005 10.75 10.75 13.1005 10.75 16C10.75 18.8995 13.1005 21.25 16 21.25Z" fill="#429B9C"/>
<path d="M18.236 22.6271C17.533 22.8651 16.783 23.0001 16 23.0001C13.414 23.0001 11.157 21.5871 9.945 19.4961L9.937 19.5001L3.885 9.01709C2.693 11.0751 2 13.4561 2 16.0001C2 23.0611 7.261 28.9031 14.065 29.8501L18.236 22.6271Z" fill="#429B9C"/>
<path d="M20.615 10.75C22.074 12.034 23 13.909 23 16C23 17.274 22.653 18.466 22.055 19.496L22.063 19.5L16 30C23.719 30 30 23.719 30 16C30 14.143 29.629 12.373 28.969 10.75H20.615Z" fill="#429B9C"/>
</svg>
