<svg width="23" height="17" viewBox="0 0 23 17" fill="none" xmlns="http://www.w3.org/2000/svg">
<path d="M20 16L5 1M9.8 6.94157C9.42658 7.35326 9.2 7.89403 9.2 8.48631C9.2 9.77609 10.2745 10.8217 11.6 10.8217C12.2111 10.8217 12.7689 10.5994 13.1926 10.2334M20.0388 10.8217C20.865 9.58482 21.2 8.57613 21.2 8.57613C21.2 8.57613 19.0154 1.6 11.6 1.6C11.1837 1.6 10.7839 1.62199 10.4 1.66349M17 13.8494C15.6226 14.7281 13.8493 15.3495 11.6 15.3127C4.27692 15.193 2 8.57613 2 8.57613C2 8.57613 3.05786 5.19808 6.2 3.14332" stroke="#151515" stroke-width="2" stroke-linecap="round"/>
</svg>
